<?xml version="1.0" encoding="UTF-8" standalone="no"?><svg xmlns="http://www.w3.org/2000/svg" xmlns:xlink="http://www.w3.org/1999/xlink" contentScriptType="application/ecmascript" contentStyleType="text/css" height="523px" preserveAspectRatio="none" style="width:1289px;height:523px;" version="1.1" viewBox="0 0 1289 523" width="1289px" zoomAndPan="magnify"><defs><filter height="300%" id="fj5do0d5n2yen" width="300%" x="-1" y="-1"><feGaussianBlur result="blurOut" stdDeviation="2.0"/><feColorMatrix in="blurOut" result="blurOut2" type="matrix" values="0 0 0 0 0 0 0 0 0 0 0 0 0 0 0 0 0 0 .4 0"/><feOffset dx="4.0" dy="4.0" in="blurOut2" result="blurOut3"/><feBlend in="SourceGraphic" in2="blurOut3" mode="normal"/></filter></defs><g><!--MD5=[aa8f7b917213fcc1c2766e2d59b49067]
cluster java.lang--><polygon fill="#FFFFFF" filter="url(#fj5do0d5n2yen)" points="234.5,314.5,303.5,314.5,310.5,338.1094,481.5,338.1094,481.5,414.5,234.5,414.5,234.5,314.5" style="stroke:#000000;stroke-width:1.5;"/><line style="stroke:#000000;stroke-width:1.5;" x1="234.5" x2="310.5" y1="338.1094" y2="338.1094"/><text fill="#000000" font-family="sans-serif" font-size="14" font-weight="bold" lengthAdjust="spacing" textLength="63" x="238.5" y="331.0332">java.lang</text><!--MD5=[0d852700fdad35b7061d461d6907a324]
cluster java.io--><polygon fill="#FFFFFF" filter="url(#fj5do0d5n2yen)" points="505.5,314.5,557.5,314.5,564.5,338.1094,908.5,338.1094,908.5,414.5,505.5,414.5,505.5,314.5" style="stroke:#000000;stroke-width:1.5;"/><line style="stroke:#000000;stroke-width:1.5;" x1="505.5" x2="564.5" y1="338.1094" y2="338.1094"/><text fill="#000000" font-family="sans-serif" font-size="14" font-weight="bold" lengthAdjust="spacing" textLength="46" x="509.5" y="331.0332">java.io</text><!--MD5=[7db3c59d38ae5b37b484eb2df9368145]
cluster java.util--><polygon fill="#FFFFFF" filter="url(#fj5do0d5n2yen)" points="932.5,314.5,993.5,314.5,1000.5,338.1094,1272.5,338.1094,1272.5,414.5,932.5,414.5,932.5,314.5" style="stroke:#000000;stroke-width:1.5;"/><line style="stroke:#000000;stroke-width:1.5;" x1="932.5" x2="1000.5" y1="338.1094" y2="338.1094"/><text fill="#000000" font-family="sans-serif" font-size="14" font-weight="bold" lengthAdjust="spacing" textLength="55" x="936.5" y="331.0332">java.util</text><!--MD5=[46cd8c99e360dcb264cdddfa365b3c7d]
cluster prog01_aorderedlist--><polygon fill="#FFFFFF" filter="url(#fj5do0d5n2yen)" points="407.5,33.5,556.5,33.5,563.5,57.1094,817.5,57.1094,817.5,133.5,407.5,133.5,407.5,33.5" style="stroke:#000000;stroke-width:1.5;"/><line style="stroke:#000000;stroke-width:1.5;" x1="407.5" x2="563.5" y1="57.1094" y2="57.1094"/><text fill="#000000" font-family="sans-serif" font-size="14" font-weight="bold" lengthAdjust="spacing" textLength="143" x="411.5" y="50.0332">prog01_aorderedlist</text><!--MD5=[3c78a2fa643d9223b1f8ad930e883961]
class java.lang.Override--><rect codeLine="1" fill="#FEFECE" filter="url(#fj5do0d5n2yen)" height="48" id="java.lang.Override" style="stroke:#A80036;stroke-width:1.5;" width="78" x="387.5" y="350.5"/><ellipse cx="402.5" cy="366.5" fill="#E3664A" rx="11" ry="11" style="stroke:#A80036;stroke-width:1.0;"/><path d="M404.8438,364.0781 L404.8438,363.5625 Q404.8438,362.7344 404.3594,362.2344 Q403.8906,361.7344 403.1406,361.7344 Q402.5469,361.7344 402.0156,362.1406 Q401.4844,362.5313 401.2188,363.1563 Q400.75,364.25 400.75,365.3594 L400.75,367.875 Q400.75,369.7969 401.6094,370.9219 Q402.1719,371.6719 403.1875,371.6719 Q403.7344,371.6719 404.1719,371.5313 Q404.625,371.3906 404.875,371.1406 Q405.125,370.8906 405.3438,370.8906 Q405.6094,370.8906 405.7969,371.0781 Q405.9844,371.2656 405.9844,371.5313 Q405.9844,371.9531 405.4063,372.3438 Q404.5781,372.9063 403.1406,372.9063 Q402.0469,372.9063 401.3281,372.4063 Q400.4063,371.7656 399.9531,370.5 Q399.5,369.2344 399.5,368 L399.5,365.2656 Q399.5,363.2813 400.4844,361.8906 Q401.4688,360.4844 403.1094,360.4844 Q403.8594,360.4844 404.5,360.7969 Q405.1563,361.0938 405.625,361.8594 Q406.0938,362.625 406.0938,363.5625 L406.0938,368.0938 Q406.4531,368.2656 406.4531,368.6563 Q406.4531,368.9375 406.25,369.125 Q406.0625,369.2969 405.5938,369.2969 L404.8438,369.2969 L404.8438,369.25 Q404.4531,369.3125 404.2656,369.3125 Q403.2656,369.3125 402.5156,368.5781 Q401.7813,367.8281 401.7813,366.8281 Q401.7813,365.7656 402.5938,364.9688 Q403.4219,364.1719 404.8438,364.0781 Z M404.8438,365.3594 Q403.9531,365.4531 403.4844,365.875 Q403.0313,366.2969 403.0313,366.8438 Q403.0313,367.3281 403.4063,367.6719 Q403.7969,368.0156 404.4375,368.0156 Q404.5625,368.0156 404.8438,368 L404.8438,365.3594 Z " fill="#000000"/><text fill="#000000" font-family="sans-serif" font-size="12" lengthAdjust="spacing" textLength="46" x="416.5" y="371.4102">Override</text><line style="stroke:#A80036;stroke-width:1.5;" x1="388.5" x2="464.5" y1="382.5" y2="382.5"/><line style="stroke:#A80036;stroke-width:1.5;" x1="388.5" x2="464.5" y1="390.5" y2="390.5"/><!--MD5=[008d82c49f85b4d489e041917c99c847]
class java.lang.Comparable--><rect codeLine="11" fill="#FEFECE" filter="url(#fj5do0d5n2yen)" height="48" id="java.lang.Comparable" style="stroke:#A80036;stroke-width:1.5;" width="102" x="250.5" y="350.5"/><ellipse cx="265.5" cy="366.5" fill="#B4A7E5" rx="11" ry="11" style="stroke:#A80036;stroke-width:1.0;"/><path d="M266.4531,363.1406 L266.4531,369.7969 L268.1719,369.7969 Q268.7813,369.7969 269.0469,370.0313 Q269.3125,370.2656 269.3125,370.6563 Q269.3125,371.0313 269.0469,371.2656 Q268.7813,371.5 268.1719,371.5 L263.0313,371.5 Q262.4219,371.5 262.1563,371.2656 Q261.8906,371.0313 261.8906,370.6406 Q261.8906,370.2656 262.1563,370.0313 Q262.4219,369.7969 263.0313,369.7969 L264.75,369.7969 L264.75,363.1406 L263.0313,363.1406 Q262.4219,363.1406 262.1563,362.9063 Q261.8906,362.6719 261.8906,362.2813 Q261.8906,361.9063 262.1563,361.6719 Q262.4219,361.4375 263.0313,361.4375 L268.1719,361.4375 Q268.7813,361.4375 269.0469,361.6719 Q269.3125,361.9063 269.3125,362.2813 Q269.3125,362.6719 269.0469,362.9063 Q268.7813,363.1406 268.1719,363.1406 L266.4531,363.1406 Z " fill="#000000"/><text fill="#000000" font-family="sans-serif" font-size="12" font-style="italic" lengthAdjust="spacing" textLength="70" x="279.5" y="371.4102">Comparable</text><line style="stroke:#A80036;stroke-width:1.5;" x1="251.5" x2="351.5" y1="382.5" y2="382.5"/><line style="stroke:#A80036;stroke-width:1.5;" x1="251.5" x2="351.5" y1="390.5" y2="390.5"/><!--MD5=[c6f7a6c596e3395cd93cf9c14e16296b]
class java.io.File--><rect codeLine="2" fill="#FEFECE" filter="url(#fj5do0d5n2yen)" height="48" id="java.io.File" style="stroke:#A80036;stroke-width:1.5;" width="52" x="840.5" y="350.5"/><ellipse cx="855.5" cy="366.5" fill="#ADD1B2" rx="11" ry="11" style="stroke:#A80036;stroke-width:1.0;"/><path d="M858.2656,362.375 Q858.4219,362.1563 858.6094,362.0469 Q858.7969,361.9375 859.0156,361.9375 Q859.3906,361.9375 859.625,362.2031 Q859.8594,362.4531 859.8594,363.0625 L859.8594,364.5156 Q859.8594,365.125 859.625,365.3906 Q859.3906,365.6563 859.0156,365.6563 Q858.6719,365.6563 858.4688,365.4531 Q858.2656,365.2656 858.1563,364.75 Q858.1094,364.3906 857.9219,364.2031 Q857.5938,363.8281 856.9844,363.6094 Q856.375,363.3906 855.75,363.3906 Q854.9844,363.3906 854.3438,363.7188 Q853.7188,364.0469 853.2188,364.7969 Q852.7344,365.5469 852.7344,366.5781 L852.7344,367.6719 Q852.7344,368.9063 853.625,369.7344 Q854.5156,370.5469 856.1094,370.5469 Q857.0469,370.5469 857.7031,370.2969 Q858.0938,370.1406 858.5156,369.7031 Q858.7813,369.4375 858.9219,369.3594 Q859.0781,369.2813 859.2813,369.2813 Q859.6094,369.2813 859.8594,369.5469 Q860.125,369.7969 860.125,370.1406 Q860.125,370.4844 859.7813,370.8906 Q859.2813,371.4688 858.4844,371.7969 Q857.4063,372.25 856.1094,372.25 Q854.5938,372.25 853.3906,371.625 Q852.4063,371.125 851.7188,370.0625 Q851.0313,368.9844 851.0313,367.7031 L851.0313,366.5469 Q851.0313,365.2188 851.6406,364.0781 Q852.2656,362.9219 853.3594,362.3125 Q854.4531,361.6875 855.6875,361.6875 Q856.4219,361.6875 857.0625,361.8594 Q857.7188,362.0156 858.2656,362.375 Z " fill="#000000"/><text fill="#000000" font-family="sans-serif" font-size="12" lengthAdjust="spacing" textLength="20" x="869.5" y="371.4102">File</text><line style="stroke:#A80036;stroke-width:1.5;" x1="841.5" x2="891.5" y1="382.5" y2="382.5"/><line style="stroke:#A80036;stroke-width:1.5;" x1="841.5" x2="891.5" y1="390.5" y2="390.5"/><!--MD5=[9534535aba5c695dd128e6d18a8a382a]
class java.io.FileNotFoundException--><rect codeLine="3" fill="#FEFECE" filter="url(#fj5do0d5n2yen)" height="48" id="java.io.FileNotFoundException" style="stroke:#A80036;stroke-width:1.5;" width="159" x="646" y="350.5"/><ellipse cx="661" cy="366.5" fill="#ADD1B2" rx="11" ry="11" style="stroke:#A80036;stroke-width:1.0;"/><path d="M663.7656,362.375 Q663.9219,362.1563 664.1094,362.0469 Q664.2969,361.9375 664.5156,361.9375 Q664.8906,361.9375 665.125,362.2031 Q665.3594,362.4531 665.3594,363.0625 L665.3594,364.5156 Q665.3594,365.125 665.125,365.3906 Q664.8906,365.6563 664.5156,365.6563 Q664.1719,365.6563 663.9688,365.4531 Q663.7656,365.2656 663.6563,364.75 Q663.6094,364.3906 663.4219,364.2031 Q663.0938,363.8281 662.4844,363.6094 Q661.875,363.3906 661.25,363.3906 Q660.4844,363.3906 659.8438,363.7188 Q659.2188,364.0469 658.7188,364.7969 Q658.2344,365.5469 658.2344,366.5781 L658.2344,367.6719 Q658.2344,368.9063 659.125,369.7344 Q660.0156,370.5469 661.6094,370.5469 Q662.5469,370.5469 663.2031,370.2969 Q663.5938,370.1406 664.0156,369.7031 Q664.2813,369.4375 664.4219,369.3594 Q664.5781,369.2813 664.7813,369.2813 Q665.1094,369.2813 665.3594,369.5469 Q665.625,369.7969 665.625,370.1406 Q665.625,370.4844 665.2813,370.8906 Q664.7813,371.4688 663.9844,371.7969 Q662.9063,372.25 661.6094,372.25 Q660.0938,372.25 658.8906,371.625 Q657.9063,371.125 657.2188,370.0625 Q656.5313,368.9844 656.5313,367.7031 L656.5313,366.5469 Q656.5313,365.2188 657.1406,364.0781 Q657.7656,362.9219 658.8594,362.3125 Q659.9531,361.6875 661.1875,361.6875 Q661.9219,361.6875 662.5625,361.8594 Q663.2188,362.0156 663.7656,362.375 Z " fill="#000000"/><text fill="#000000" font-family="sans-serif" font-size="12" lengthAdjust="spacing" textLength="127" x="675" y="371.4102">FileNotFoundException</text><line style="stroke:#A80036;stroke-width:1.5;" x1="647" x2="804" y1="382.5" y2="382.5"/><line style="stroke:#A80036;stroke-width:1.5;" x1="647" x2="804" y1="390.5" y2="390.5"/><!--MD5=[e61417e1c56db1382337fcf0821547ce]
class java.io.PrintWriter--><rect codeLine="4" fill="#FEFECE" filter="url(#fj5do0d5n2yen)" height="48" id="java.io.PrintWriter" style="stroke:#A80036;stroke-width:1.5;" width="89" x="522" y="350.5"/><ellipse cx="537" cy="366.5" fill="#ADD1B2" rx="11" ry="11" style="stroke:#A80036;stroke-width:1.0;"/><path d="M539.7656,362.375 Q539.9219,362.1563 540.1094,362.0469 Q540.2969,361.9375 540.5156,361.9375 Q540.8906,361.9375 541.125,362.2031 Q541.3594,362.4531 541.3594,363.0625 L541.3594,364.5156 Q541.3594,365.125 541.125,365.3906 Q540.8906,365.6563 540.5156,365.6563 Q540.1719,365.6563 539.9688,365.4531 Q539.7656,365.2656 539.6563,364.75 Q539.6094,364.3906 539.4219,364.2031 Q539.0938,363.8281 538.4844,363.6094 Q537.875,363.3906 537.25,363.3906 Q536.4844,363.3906 535.8438,363.7188 Q535.2188,364.0469 534.7188,364.7969 Q534.2344,365.5469 534.2344,366.5781 L534.2344,367.6719 Q534.2344,368.9063 535.125,369.7344 Q536.0156,370.5469 537.6094,370.5469 Q538.5469,370.5469 539.2031,370.2969 Q539.5938,370.1406 540.0156,369.7031 Q540.2813,369.4375 540.4219,369.3594 Q540.5781,369.2813 540.7813,369.2813 Q541.1094,369.2813 541.3594,369.5469 Q541.625,369.7969 541.625,370.1406 Q541.625,370.4844 541.2813,370.8906 Q540.7813,371.4688 539.9844,371.7969 Q538.9063,372.25 537.6094,372.25 Q536.0938,372.25 534.8906,371.625 Q533.9063,371.125 533.2188,370.0625 Q532.5313,368.9844 532.5313,367.7031 L532.5313,366.5469 Q532.5313,365.2188 533.1406,364.0781 Q533.7656,362.9219 534.8594,362.3125 Q535.9531,361.6875 537.1875,361.6875 Q537.9219,361.6875 538.5625,361.8594 Q539.2188,362.0156 539.7656,362.375 Z " fill="#000000"/><text fill="#000000" font-family="sans-serif" font-size="12" lengthAdjust="spacing" textLength="57" x="551" y="371.4102">PrintWriter</text><line style="stroke:#A80036;stroke-width:1.5;" x1="523" x2="610" y1="382.5" y2="382.5"/><line style="stroke:#A80036;stroke-width:1.5;" x1="523" x2="610" y1="390.5" y2="390.5"/><!--MD5=[bcf2fe05997e7549c3ee1a51188c70a5]
class java.util.Arrays--><rect codeLine="5" fill="#FEFECE" filter="url(#fj5do0d5n2yen)" height="48" id="java.util.Arrays" style="stroke:#A80036;stroke-width:1.5;" width="66" x="948.5" y="350.5"/><ellipse cx="963.5" cy="366.5" fill="#ADD1B2" rx="11" ry="11" style="stroke:#A80036;stroke-width:1.0;"/><path d="M966.2656,362.375 Q966.4219,362.1563 966.6094,362.0469 Q966.7969,361.9375 967.0156,361.9375 Q967.3906,361.9375 967.625,362.2031 Q967.8594,362.4531 967.8594,363.0625 L967.8594,364.5156 Q967.8594,365.125 967.625,365.3906 Q967.3906,365.6563 967.0156,365.6563 Q966.6719,365.6563 966.4688,365.4531 Q966.2656,365.2656 966.1563,364.75 Q966.1094,364.3906 965.9219,364.2031 Q965.5938,363.8281 964.9844,363.6094 Q964.375,363.3906 963.75,363.3906 Q962.9844,363.3906 962.3438,363.7188 Q961.7188,364.0469 961.2188,364.7969 Q960.7344,365.5469 960.7344,366.5781 L960.7344,367.6719 Q960.7344,368.9063 961.625,369.7344 Q962.5156,370.5469 964.1094,370.5469 Q965.0469,370.5469 965.7031,370.2969 Q966.0938,370.1406 966.5156,369.7031 Q966.7813,369.4375 966.9219,369.3594 Q967.0781,369.2813 967.2813,369.2813 Q967.6094,369.2813 967.8594,369.5469 Q968.125,369.7969 968.125,370.1406 Q968.125,370.4844 967.7813,370.8906 Q967.2813,371.4688 966.4844,371.7969 Q965.4063,372.25 964.1094,372.25 Q962.5938,372.25 961.3906,371.625 Q960.4063,371.125 959.7188,370.0625 Q959.0313,368.9844 959.0313,367.7031 L959.0313,366.5469 Q959.0313,365.2188 959.6406,364.0781 Q960.2656,362.9219 961.3594,362.3125 Q962.4531,361.6875 963.6875,361.6875 Q964.4219,361.6875 965.0625,361.8594 Q965.7188,362.0156 966.2656,362.375 Z " fill="#000000"/><text fill="#000000" font-family="sans-serif" font-size="12" lengthAdjust="spacing" textLength="34" x="977.5" y="371.4102">Arrays</text><line style="stroke:#A80036;stroke-width:1.5;" x1="949.5" x2="1013.5" y1="382.5" y2="382.5"/><line style="stroke:#A80036;stroke-width:1.5;" x1="949.5" x2="1013.5" y1="390.5" y2="390.5"/><!--MD5=[116b2f85a4dcee79c9e0e32d4a378dd6]
class java.util.Collections--><rect codeLine="6" fill="#FEFECE" filter="url(#fj5do0d5n2yen)" height="48" id="java.util.Collections" style="stroke:#A80036;stroke-width:1.5;" width="94" x="1049.5" y="350.5"/><ellipse cx="1064.5" cy="366.5" fill="#ADD1B2" rx="11" ry="11" style="stroke:#A80036;stroke-width:1.0;"/><path d="M1067.2656,362.375 Q1067.4219,362.1563 1067.6094,362.0469 Q1067.7969,361.9375 1068.0156,361.9375 Q1068.3906,361.9375 1068.625,362.2031 Q1068.8594,362.4531 1068.8594,363.0625 L1068.8594,364.5156 Q1068.8594,365.125 1068.625,365.3906 Q1068.3906,365.6563 1068.0156,365.6563 Q1067.6719,365.6563 1067.4688,365.4531 Q1067.2656,365.2656 1067.1563,364.75 Q1067.1094,364.3906 1066.9219,364.2031 Q1066.5938,363.8281 1065.9844,363.6094 Q1065.375,363.3906 1064.75,363.3906 Q1063.9844,363.3906 1063.3438,363.7188 Q1062.7188,364.0469 1062.2188,364.7969 Q1061.7344,365.5469 1061.7344,366.5781 L1061.7344,367.6719 Q1061.7344,368.9063 1062.625,369.7344 Q1063.5156,370.5469 1065.1094,370.5469 Q1066.0469,370.5469 1066.7031,370.2969 Q1067.0938,370.1406 1067.5156,369.7031 Q1067.7813,369.4375 1067.9219,369.3594 Q1068.0781,369.2813 1068.2813,369.2813 Q1068.6094,369.2813 1068.8594,369.5469 Q1069.125,369.7969 1069.125,370.1406 Q1069.125,370.4844 1068.7813,370.8906 Q1068.2813,371.4688 1067.4844,371.7969 Q1066.4063,372.25 1065.1094,372.25 Q1063.5938,372.25 1062.3906,371.625 Q1061.4063,371.125 1060.7188,370.0625 Q1060.0313,368.9844 1060.0313,367.7031 L1060.0313,366.5469 Q1060.0313,365.2188 1060.6406,364.0781 Q1061.2656,362.9219 1062.3594,362.3125 Q1063.4531,361.6875 1064.6875,361.6875 Q1065.4219,361.6875 1066.0625,361.8594 Q1066.7188,362.0156 1067.2656,362.375 Z " fill="#000000"/><text fill="#000000" font-family="sans-serif" font-size="12" lengthAdjust="spacing" textLength="62" x="1078.5" y="371.4102">Collections</text><line style="stroke:#A80036;stroke-width:1.5;" x1="1050.5" x2="1142.5" y1="382.5" y2="382.5"/><line style="stroke:#A80036;stroke-width:1.5;" x1="1050.5" x2="1142.5" y1="390.5" y2="390.5"/><!--MD5=[28e8da24617c3e7f8b010c1b590508e8]
class java.util.Scanner--><rect codeLine="7" fill="#FEFECE" filter="url(#fj5do0d5n2yen)" height="48" id="java.util.Scanner" style="stroke:#A80036;stroke-width:1.5;" width="78" x="1178.5" y="350.5"/><ellipse cx="1193.5" cy="366.5" fill="#ADD1B2" rx="11" ry="11" style="stroke:#A80036;stroke-width:1.0;"/><path d="M1196.2656,362.375 Q1196.4219,362.1563 1196.6094,362.0469 Q1196.7969,361.9375 1197.0156,361.9375 Q1197.3906,361.9375 1197.625,362.2031 Q1197.8594,362.4531 1197.8594,363.0625 L1197.8594,364.5156 Q1197.8594,365.125 1197.625,365.3906 Q1197.3906,365.6563 1197.0156,365.6563 Q1196.6719,365.6563 1196.4688,365.4531 Q1196.2656,365.2656 1196.1563,364.75 Q1196.1094,364.3906 1195.9219,364.2031 Q1195.5938,363.8281 1194.9844,363.6094 Q1194.375,363.3906 1193.75,363.3906 Q1192.9844,363.3906 1192.3438,363.7188 Q1191.7188,364.0469 1191.2188,364.7969 Q1190.7344,365.5469 1190.7344,366.5781 L1190.7344,367.6719 Q1190.7344,368.9063 1191.625,369.7344 Q1192.5156,370.5469 1194.1094,370.5469 Q1195.0469,370.5469 1195.7031,370.2969 Q1196.0938,370.1406 1196.5156,369.7031 Q1196.7813,369.4375 1196.9219,369.3594 Q1197.0781,369.2813 1197.2813,369.2813 Q1197.6094,369.2813 1197.8594,369.5469 Q1198.125,369.7969 1198.125,370.1406 Q1198.125,370.4844 1197.7813,370.8906 Q1197.2813,371.4688 1196.4844,371.7969 Q1195.4063,372.25 1194.1094,372.25 Q1192.5938,372.25 1191.3906,371.625 Q1190.4063,371.125 1189.7188,370.0625 Q1189.0313,368.9844 1189.0313,367.7031 L1189.0313,366.5469 Q1189.0313,365.2188 1189.6406,364.0781 Q1190.2656,362.9219 1191.3594,362.3125 Q1192.4531,361.6875 1193.6875,361.6875 Q1194.4219,361.6875 1195.0625,361.8594 Q1195.7188,362.0156 1196.2656,362.375 Z " fill="#000000"/><text fill="#000000" font-family="sans-serif" font-size="12" lengthAdjust="spacing" textLength="46" x="1207.5" y="371.4102">Scanner</text><line style="stroke:#A80036;stroke-width:1.5;" x1="1179.5" x2="1255.5" y1="382.5" y2="382.5"/><line style="stroke:#A80036;stroke-width:1.5;" x1="1179.5" x2="1255.5" y1="390.5" y2="390.5"/><!--MD5=[47033e93dafc7ff6c6624ecf573cf505]
class prog01_aorderedlist.Car--><rect codeLine="8" fill="#FEFECE" filter="url(#fj5do0d5n2yen)" height="48" id="prog01_aorderedlist.Car" style="stroke:#A80036;stroke-width:1.5;" width="52" x="423.5" y="69.5"/><ellipse cx="438.5" cy="85.5" fill="#ADD1B2" rx="11" ry="11" style="stroke:#A80036;stroke-width:1.0;"/><path d="M441.2656,81.375 Q441.4219,81.1563 441.6094,81.0469 Q441.7969,80.9375 442.0156,80.9375 Q442.3906,80.9375 442.625,81.2031 Q442.8594,81.4531 442.8594,82.0625 L442.8594,83.5156 Q442.8594,84.125 442.625,84.3906 Q442.3906,84.6563 442.0156,84.6563 Q441.6719,84.6563 441.4688,84.4531 Q441.2656,84.2656 441.1563,83.75 Q441.1094,83.3906 440.9219,83.2031 Q440.5938,82.8281 439.9844,82.6094 Q439.375,82.3906 438.75,82.3906 Q437.9844,82.3906 437.3438,82.7188 Q436.7188,83.0469 436.2188,83.7969 Q435.7344,84.5469 435.7344,85.5781 L435.7344,86.6719 Q435.7344,87.9063 436.625,88.7344 Q437.5156,89.5469 439.1094,89.5469 Q440.0469,89.5469 440.7031,89.2969 Q441.0938,89.1406 441.5156,88.7031 Q441.7813,88.4375 441.9219,88.3594 Q442.0781,88.2813 442.2813,88.2813 Q442.6094,88.2813 442.8594,88.5469 Q443.125,88.7969 443.125,89.1406 Q443.125,89.4844 442.7813,89.8906 Q442.2813,90.4688 441.4844,90.7969 Q440.4063,91.25 439.1094,91.25 Q437.5938,91.25 436.3906,90.625 Q435.4063,90.125 434.7188,89.0625 Q434.0313,87.9844 434.0313,86.7031 L434.0313,85.5469 Q434.0313,84.2188 434.6406,83.0781 Q435.2656,81.9219 436.3594,81.3125 Q437.4531,80.6875 438.6875,80.6875 Q439.4219,80.6875 440.0625,80.8594 Q440.7188,81.0156 441.2656,81.375 Z " fill="#000000"/><text fill="#000000" font-family="sans-serif" font-size="12" lengthAdjust="spacing" textLength="20" x="452.5" y="90.4102">Car</text><line style="stroke:#A80036;stroke-width:1.5;" x1="424.5" x2="474.5" y1="101.5" y2="101.5"/><line style="stroke:#A80036;stroke-width:1.5;" x1="424.5" x2="474.5" y1="109.5" y2="109.5"/><!--MD5=[34f3ffa8214587ea20d42a7c1952c4e3]
class prog01_aorderedlist.Prog01_aOrderedList--><rect codeLine="9" fill="#FEFECE" filter="url(#fj5do0d5n2yen)" height="48" id="prog01_aorderedlist.Prog01_aOrderedList" style="stroke:#A80036;stroke-width:1.5;" width="151" x="650" y="69.5"/><ellipse cx="665" cy="85.5" fill="#ADD1B2" rx="11" ry="11" style="stroke:#A80036;stroke-width:1.0;"/><path d="M667.7656,81.375 Q667.9219,81.1563 668.1094,81.0469 Q668.2969,80.9375 668.5156,80.9375 Q668.8906,80.9375 669.125,81.2031 Q669.3594,81.4531 669.3594,82.0625 L669.3594,83.5156 Q669.3594,84.125 669.125,84.3906 Q668.8906,84.6563 668.5156,84.6563 Q668.1719,84.6563 667.9688,84.4531 Q667.7656,84.2656 667.6563,83.75 Q667.6094,83.3906 667.4219,83.2031 Q667.0938,82.8281 666.4844,82.6094 Q665.875,82.3906 665.25,82.3906 Q664.4844,82.3906 663.8438,82.7188 Q663.2188,83.0469 662.7188,83.7969 Q662.2344,84.5469 662.2344,85.5781 L662.2344,86.6719 Q662.2344,87.9063 663.125,88.7344 Q664.0156,89.5469 665.6094,89.5469 Q666.5469,89.5469 667.2031,89.2969 Q667.5938,89.1406 668.0156,88.7031 Q668.2813,88.4375 668.4219,88.3594 Q668.5781,88.2813 668.7813,88.2813 Q669.1094,88.2813 669.3594,88.5469 Q669.625,88.7969 669.625,89.1406 Q669.625,89.4844 669.2813,89.8906 Q668.7813,90.4688 667.9844,90.7969 Q666.9063,91.25 665.6094,91.25 Q664.0938,91.25 662.8906,90.625 Q661.9063,90.125 661.2188,89.0625 Q660.5313,87.9844 660.5313,86.7031 L660.5313,85.5469 Q660.5313,84.2188 661.1406,83.0781 Q661.7656,81.9219 662.8594,81.3125 Q663.9531,80.6875 665.1875,80.6875 Q665.9219,80.6875 666.5625,80.8594 Q667.2188,81.0156 667.7656,81.375 Z " fill="#000000"/><text fill="#000000" font-family="sans-serif" font-size="12" lengthAdjust="spacing" textLength="119" x="679" y="90.4102">Prog01_aOrderedList</text><line style="stroke:#A80036;stroke-width:1.5;" x1="651" x2="800" y1="101.5" y2="101.5"/><line style="stroke:#A80036;stroke-width:1.5;" x1="651" x2="800" y1="109.5" y2="109.5"/><!--MD5=[1656f04180adb105b162069eb0f65f39]
class prog01_aorderedlist.aOrderedList--><rect codeLine="10" fill="#FEFECE" filter="url(#fj5do0d5n2yen)" height="48" id="prog01_aorderedlist.aOrderedList" style="stroke:#A80036;stroke-width:1.5;" width="104" x="510.5" y="69.5"/><ellipse cx="525.5" cy="85.5" fill="#ADD1B2" rx="11" ry="11" style="stroke:#A80036;stroke-width:1.0;"/><path d="M528.2656,81.375 Q528.4219,81.1563 528.6094,81.0469 Q528.7969,80.9375 529.0156,80.9375 Q529.3906,80.9375 529.625,81.2031 Q529.8594,81.4531 529.8594,82.0625 L529.8594,83.5156 Q529.8594,84.125 529.625,84.3906 Q529.3906,84.6563 529.0156,84.6563 Q528.6719,84.6563 528.4688,84.4531 Q528.2656,84.2656 528.1563,83.75 Q528.1094,83.3906 527.9219,83.2031 Q527.5938,82.8281 526.9844,82.6094 Q526.375,82.3906 525.75,82.3906 Q524.9844,82.3906 524.3438,82.7188 Q523.7188,83.0469 523.2188,83.7969 Q522.7344,84.5469 522.7344,85.5781 L522.7344,86.6719 Q522.7344,87.9063 523.625,88.7344 Q524.5156,89.5469 526.1094,89.5469 Q527.0469,89.5469 527.7031,89.2969 Q528.0938,89.1406 528.5156,88.7031 Q528.7813,88.4375 528.9219,88.3594 Q529.0781,88.2813 529.2813,88.2813 Q529.6094,88.2813 529.8594,88.5469 Q530.125,88.7969 530.125,89.1406 Q530.125,89.4844 529.7813,89.8906 Q529.2813,90.4688 528.4844,90.7969 Q527.4063,91.25 526.1094,91.25 Q524.5938,91.25 523.3906,90.625 Q522.4063,90.125 521.7188,89.0625 Q521.0313,87.9844 521.0313,86.7031 L521.0313,85.5469 Q521.0313,84.2188 521.6406,83.0781 Q522.2656,81.9219 523.3594,81.3125 Q524.4531,80.6875 525.6875,80.6875 Q526.4219,80.6875 527.0625,80.8594 Q527.7188,81.0156 528.2656,81.375 Z " fill="#000000"/><text fill="#000000" font-family="sans-serif" font-size="12" lengthAdjust="spacing" textLength="72" x="539.5" y="90.4102">aOrderedList</text><line style="stroke:#A80036;stroke-width:1.5;" x1="511.5" x2="613.5" y1="101.5" y2="101.5"/><line style="stroke:#A80036;stroke-width:1.5;" x1="511.5" x2="613.5" y1="109.5" y2="109.5"/><!--MD5=[3f0ef310aaa84a542276992c5216544d]
class Car--><rect codeLine="22" fill="#FEFECE" filter="url(#fj5do0d5n2yen)" height="172.5234" id="Car" style="stroke:#A80036;stroke-width:1.5;" width="195" x="7" y="7"/><ellipse cx="90.25" cy="23" fill="#ADD1B2" rx="11" ry="11" style="stroke:#A80036;stroke-width:1.0;"/><path d="M93.0156,18.875 Q93.1719,18.6563 93.3594,18.5469 Q93.5469,18.4375 93.7656,18.4375 Q94.1406,18.4375 94.375,18.7031 Q94.6094,18.9531 94.6094,19.5625 L94.6094,21.0156 Q94.6094,21.625 94.375,21.8906 Q94.1406,22.1563 93.7656,22.1563 Q93.4219,22.1563 93.2188,21.9531 Q93.0156,21.7656 92.9063,21.25 Q92.8594,20.8906 92.6719,20.7031 Q92.3438,20.3281 91.7344,20.1094 Q91.125,19.8906 90.5,19.8906 Q89.7344,19.8906 89.0938,20.2188 Q88.4688,20.5469 87.9688,21.2969 Q87.4844,22.0469 87.4844,23.0781 L87.4844,24.1719 Q87.4844,25.4063 88.375,26.2344 Q89.2656,27.0469 90.8594,27.0469 Q91.7969,27.0469 92.4531,26.7969 Q92.8438,26.6406 93.2656,26.2031 Q93.5313,25.9375 93.6719,25.8594 Q93.8281,25.7813 94.0313,25.7813 Q94.3594,25.7813 94.6094,26.0469 Q94.875,26.2969 94.875,26.6406 Q94.875,26.9844 94.5313,27.3906 Q94.0313,27.9688 93.2344,28.2969 Q92.1563,28.75 90.8594,28.75 Q89.3438,28.75 88.1406,28.125 Q87.1563,27.625 86.4688,26.5625 Q85.7813,25.4844 85.7813,24.2031 L85.7813,23.0469 Q85.7813,21.7188 86.3906,20.5781 Q87.0156,19.4219 88.1094,18.8125 Q89.2031,18.1875 90.4375,18.1875 Q91.1719,18.1875 91.8125,18.3594 Q92.4688,18.5156 93.0156,18.875 Z " fill="#000000"/><text fill="#000000" font-family="sans-serif" font-size="12" lengthAdjust="spacing" textLength="20" x="110.75" y="27.9102">Car</text><line style="stroke:#A80036;stroke-width:1.5;" x1="8" x2="201" y1="39" y2="39"/><text fill="#000000" font-family="sans-serif" font-size="11" lengthAdjust="spacing" textLength="92" x="13" y="54.4189">private String make</text><text fill="#000000" font-family="sans-serif" font-size="11" lengthAdjust="spacing" textLength="100" x="13" y="68.2549">private year : Integer</text><text fill="#000000" font-family="sans-serif" font-size="11" lengthAdjust="spacing" textLength="102" x="13" y="82.0908">private price : Integer</text><line style="stroke:#A80036;stroke-width:1.5;" x1="8" x2="201" y1="88.5078" y2="88.5078"/><ellipse cx="18" cy="99.5078" fill="#84BE84" rx="3" ry="3" style="stroke:#038048;stroke-width:1.0;"/><text fill="#000000" font-family="sans-serif" font-size="11" lengthAdjust="spacing" textLength="48" x="27" y="103.9268">getMake()</text><ellipse cx="18" cy="113.3438" fill="#84BE84" rx="3" ry="3" style="stroke:#038048;stroke-width:1.0;"/><text fill="#000000" font-family="sans-serif" font-size="11" lengthAdjust="spacing" textLength="47" x="27" y="117.7627">getPrice()</text><ellipse cx="18" cy="127.1797" fill="#84BE84" rx="3" ry="3" style="stroke:#038048;stroke-width:1.0;"/><text fill="#000000" font-family="sans-serif" font-size="11" lengthAdjust="spacing" textLength="47" x="27" y="131.5986">getYear()</text><ellipse cx="18" cy="141.0156" fill="#84BE84" rx="3" ry="3" style="stroke:#038048;stroke-width:1.0;"/><text fill="#000000" font-family="sans-serif" font-size="11" lengthAdjust="spacing" textLength="169" x="27" y="145.4346">Car(String Make, int Year, int Price)</text><ellipse cx="18" cy="154.8516" fill="#84BE84" rx="3" ry="3" style="stroke:#038048;stroke-width:1.0;"/><text fill="#000000" font-family="sans-serif" font-size="11" lengthAdjust="spacing" textLength="107" x="27" y="159.2705">compareTo(Car other)</text><ellipse cx="18" cy="168.6875" fill="#84BE84" rx="3" ry="3" style="stroke:#038048;stroke-width:1.0;"/><text fill="#000000" font-family="sans-serif" font-size="11" lengthAdjust="spacing" textLength="76" x="27" y="173.1064">String toString()</text><!--MD5=[79074f272627de37263b466c641caa36]
class Prog01_aOrderedList--><rect codeLine="36" fill="#FEFECE" filter="url(#fj5do0d5n2yen)" height="103.3438" id="Prog01_aOrderedList" style="stroke:#A80036;stroke-width:1.5;" width="151" x="237" y="42"/><ellipse cx="252" cy="58" fill="#ADD1B2" rx="11" ry="11" style="stroke:#A80036;stroke-width:1.0;"/><path d="M254.7656,53.875 Q254.9219,53.6563 255.1094,53.5469 Q255.2969,53.4375 255.5156,53.4375 Q255.8906,53.4375 256.125,53.7031 Q256.3594,53.9531 256.3594,54.5625 L256.3594,56.0156 Q256.3594,56.625 256.125,56.8906 Q255.8906,57.1563 255.5156,57.1563 Q255.1719,57.1563 254.9688,56.9531 Q254.7656,56.7656 254.6563,56.25 Q254.6094,55.8906 254.4219,55.7031 Q254.0938,55.3281 253.4844,55.1094 Q252.875,54.8906 252.25,54.8906 Q251.4844,54.8906 250.8438,55.2188 Q250.2188,55.5469 249.7188,56.2969 Q249.2344,57.0469 249.2344,58.0781 L249.2344,59.1719 Q249.2344,60.4063 250.125,61.2344 Q251.0156,62.0469 252.6094,62.0469 Q253.5469,62.0469 254.2031,61.7969 Q254.5938,61.6406 255.0156,61.2031 Q255.2813,60.9375 255.4219,60.8594 Q255.5781,60.7813 255.7813,60.7813 Q256.1094,60.7813 256.3594,61.0469 Q256.625,61.2969 256.625,61.6406 Q256.625,61.9844 256.2813,62.3906 Q255.7813,62.9688 254.9844,63.2969 Q253.9063,63.75 252.6094,63.75 Q251.0938,63.75 249.8906,63.125 Q248.9063,62.625 248.2188,61.5625 Q247.5313,60.4844 247.5313,59.2031 L247.5313,58.0469 Q247.5313,56.7188 248.1406,55.5781 Q248.7656,54.4219 249.8594,53.8125 Q250.9531,53.1875 252.1875,53.1875 Q252.9219,53.1875 253.5625,53.3594 Q254.2188,53.5156 254.7656,53.875 Z " fill="#000000"/><text fill="#000000" font-family="sans-serif" font-size="12" lengthAdjust="spacing" textLength="119" x="266" y="62.9102">Prog01_aOrderedList</text><line style="stroke:#A80036;stroke-width:1.5;" x1="238" x2="387" y1="74" y2="74"/><line style="stroke:#A80036;stroke-width:1.5;" x1="238" x2="387" y1="82" y2="82"/><ellipse cx="248" cy="93" fill="#84BE84" rx="3" ry="3" style="stroke:#038048;stroke-width:1.0;"/><text fill="#000000" font-family="sans-serif" font-size="11" lengthAdjust="spacing" textLength="64" x="257" y="97.4189">GetInputFile()</text><ellipse cx="248" cy="106.8359" fill="#84BE84" rx="3" ry="3" style="stroke:#038048;stroke-width:1.0;"/><text fill="#000000" font-family="sans-serif" font-size="11" lengthAdjust="spacing" textLength="73" x="257" y="111.2549">GetOutputFile()</text><ellipse cx="248" cy="120.6719" fill="#84BE84" rx="3" ry="3" style="stroke:#038048;stroke-width:1.0;"/><text fill="#000000" font-family="sans-serif" font-size="11" lengthAdjust="spacing" textLength="46" x="257" y="125.0908">readFile()</text><text fill="#000000" font-family="sans-serif" font-size="11" font-style="italic" lengthAdjust="spacing" textLength="55" x="257" y="138.9268">void main()</text><!--MD5=[e421cee9025936480cbf9c73e6faac60]
class aOrderedList--><rect codeLine="43" fill="#FEFECE" filter="url(#fj5do0d5n2yen)" height="269.375" id="aOrderedList" style="stroke:#A80036;stroke-width:1.5;" width="165" x="22" y="240"/><ellipse cx="64.45" cy="256" fill="#ADD1B2" rx="11" ry="11" style="stroke:#A80036;stroke-width:1.0;"/><path d="M67.2156,251.875 Q67.3719,251.6563 67.5594,251.5469 Q67.7469,251.4375 67.9656,251.4375 Q68.3406,251.4375 68.575,251.7031 Q68.8094,251.9531 68.8094,252.5625 L68.8094,254.0156 Q68.8094,254.625 68.575,254.8906 Q68.3406,255.1563 67.9656,255.1563 Q67.6219,255.1563 67.4188,254.9531 Q67.2156,254.7656 67.1063,254.25 Q67.0594,253.8906 66.8719,253.7031 Q66.5438,253.3281 65.9344,253.1094 Q65.325,252.8906 64.7,252.8906 Q63.9344,252.8906 63.2938,253.2188 Q62.6688,253.5469 62.1688,254.2969 Q61.6844,255.0469 61.6844,256.0781 L61.6844,257.1719 Q61.6844,258.4063 62.575,259.2344 Q63.4656,260.0469 65.0594,260.0469 Q65.9969,260.0469 66.6531,259.7969 Q67.0438,259.6406 67.4656,259.2031 Q67.7313,258.9375 67.8719,258.8594 Q68.0281,258.7813 68.2313,258.7813 Q68.5594,258.7813 68.8094,259.0469 Q69.075,259.2969 69.075,259.6406 Q69.075,259.9844 68.7313,260.3906 Q68.2313,260.9688 67.4344,261.2969 Q66.3563,261.75 65.0594,261.75 Q63.5438,261.75 62.3406,261.125 Q61.3563,260.625 60.6688,259.5625 Q59.9813,258.4844 59.9813,257.2031 L59.9813,256.0469 Q59.9813,254.7188 60.5906,253.5781 Q61.2156,252.4219 62.3094,251.8125 Q63.4031,251.1875 64.6375,251.1875 Q65.3719,251.1875 66.0125,251.3594 Q66.6688,251.5156 67.2156,251.875 Z " fill="#000000"/><text fill="#000000" font-family="sans-serif" font-size="12" lengthAdjust="spacing" textLength="72" x="84.55" y="260.9102">aOrderedList</text><line style="stroke:#A80036;stroke-width:1.5;" x1="23" x2="186" y1="272" y2="272"/><text fill="#000000" font-family="sans-serif" font-size="11" lengthAdjust="spacing" textLength="121" x="28" y="287.4189">private SIZEINCREMENTS</text><text fill="#000000" font-family="sans-serif" font-size="11" lengthAdjust="spacing" textLength="125" x="28" y="301.2549">private Comparable[] oList</text><text fill="#000000" font-family="sans-serif" font-size="11" lengthAdjust="spacing" textLength="112" x="28" y="315.0908">private listSize : Integer</text><text fill="#000000" font-family="sans-serif" font-size="11" lengthAdjust="spacing" textLength="135" x="28" y="328.9268">private numObjects : Integer</text><text fill="#000000" font-family="sans-serif" font-size="11" lengthAdjust="spacing" textLength="98" x="28" y="342.7627">private curr : Integer</text><line style="stroke:#A80036;stroke-width:1.5;" x1="23" x2="186" y1="349.1797" y2="349.1797"/><ellipse cx="33" cy="360.1797" fill="#84BE84" rx="3" ry="3" style="stroke:#038048;stroke-width:1.0;"/><text fill="#000000" font-family="sans-serif" font-size="11" lengthAdjust="spacing" textLength="71" x="42" y="364.5986">aOrderedList()</text><ellipse cx="33" cy="374.0156" fill="#84BE84" rx="3" ry="3" style="stroke:#038048;stroke-width:1.0;"/><text fill="#000000" font-family="sans-serif" font-size="11" lengthAdjust="spacing" textLength="139" x="42" y="378.4346">add(Comparable newObject)</text><ellipse cx="33" cy="387.8516" fill="#84BE84" rx="3" ry="3" style="stroke:#038048;stroke-width:1.0;"/><text fill="#000000" font-family="sans-serif" font-size="11" lengthAdjust="spacing" textLength="28" x="42" y="392.2705">size()</text><ellipse cx="33" cy="401.6875" fill="#84BE84" rx="3" ry="3" style="stroke:#038048;stroke-width:1.0;"/><text fill="#000000" font-family="sans-serif" font-size="11" lengthAdjust="spacing" textLength="63" x="42" y="406.1064">get(int index)</text><ellipse cx="33" cy="415.5234" fill="#84BE84" rx="3" ry="3" style="stroke:#038048;stroke-width:1.0;"/><text fill="#000000" font-family="sans-serif" font-size="11" lengthAdjust="spacing" textLength="45" x="42" y="419.9424">isEmpty()</text><ellipse cx="33" cy="429.3594" fill="#84BE84" rx="3" ry="3" style="stroke:#038048;stroke-width:1.0;"/><text fill="#000000" font-family="sans-serif" font-size="11" lengthAdjust="spacing" textLength="84" x="42" y="433.7783">remove(int index)</text><ellipse cx="33" cy="443.1953" fill="#84BE84" rx="3" ry="3" style="stroke:#038048;stroke-width:1.0;"/><text fill="#000000" font-family="sans-serif" font-size="11" lengthAdjust="spacing" textLength="33" x="42" y="447.6143">reset()</text><ellipse cx="33" cy="457.0313" fill="#84BE84" rx="3" ry="3" style="stroke:#038048;stroke-width:1.0;"/><text fill="#000000" font-family="sans-serif" font-size="11" lengthAdjust="spacing" textLength="29" x="42" y="461.4502">next()</text><ellipse cx="33" cy="470.8672" fill="#84BE84" rx="3" ry="3" style="stroke:#038048;stroke-width:1.0;"/><text fill="#000000" font-family="sans-serif" font-size="11" lengthAdjust="spacing" textLength="48" x="42" y="475.2861">hasNext()</text><ellipse cx="33" cy="484.7031" fill="#84BE84" rx="3" ry="3" style="stroke:#038048;stroke-width:1.0;"/><text fill="#000000" font-family="sans-serif" font-size="11" lengthAdjust="spacing" textLength="44" x="42" y="489.1221">remove()</text><ellipse cx="33" cy="498.5391" fill="#84BE84" rx="3" ry="3" style="stroke:#038048;stroke-width:1.0;"/><text fill="#000000" font-family="sans-serif" font-size="11" lengthAdjust="spacing" textLength="45" x="42" y="502.958">toString()</text><!--MD5=[4992ce1c96bc1fee9898294b26dafd1e]
link prog01_aorderedlist.Car to java.lang.Override--><path codeLine="12" d="M447.58,117.81 C443.37,168.81 433.37,290.15 428.82,345.33 " fill="none" id="prog01_aorderedlist.Car-to-java.lang.Override" style="stroke:#A80036;stroke-width:1.0;stroke-dasharray:7.0,7.0;"/><polygon fill="#A80036" points="428.4,350.46,433.1336,341.8233,428.8152,345.4773,425.1612,341.1589,428.4,350.46" style="stroke:#A80036;stroke-width:1.0;"/><!--MD5=[9514428cc11d90a86f2db89718ca8235]
link prog01_aorderedlist.Car to java.lang.Comparable--><path codeLine="13" d="M438.06,117.54 C429.36,134.84 416.98,159.07 405.5,180 C390.65,207.07 385.37,212.95 370.5,240 C353.69,270.58 335.62,305.64 322.18,332.15 " fill="none" id="prog01_aorderedlist.Car-to-java.lang.Comparable" style="stroke:#A80036;stroke-width:1.0;"/><polygon fill="none" points="328.36,335.45,313.11,350.16,315.86,329.15,328.36,335.45" style="stroke:#A80036;stroke-width:1.0;"/><!--MD5=[ebc60240ca28b66e9e6951861f0a342f]
link prog01_aorderedlist.Prog01_aOrderedList to java.io.File--><path codeLine="14" d="M743.71,117.51 C764.96,145.24 800.04,193.87 822.5,240 C839.4,274.7 852.21,317.48 859.54,345.11 " fill="none" id="prog01_aorderedlist.Prog01_aOrderedList-to-java.io.File" style="stroke:#A80036;stroke-width:1.0;stroke-dasharray:7.0,7.0;"/><polygon fill="#A80036" points="860.84,350.09,862.4503,340.3737,859.5837,345.2504,854.707,342.3838,860.84,350.09" style="stroke:#A80036;stroke-width:1.0;"/><!--MD5=[22f67ea22c9193bb2e4d7eba74211d32]
link prog01_aorderedlist.Prog01_aOrderedList to java.io.FileNotFoundException--><path codeLine="15" d="M725.5,117.81 C725.5,168.81 725.5,290.15 725.5,345.33 " fill="none" id="prog01_aorderedlist.Prog01_aOrderedList-to-java.io.FileNotFoundException" style="stroke:#A80036;stroke-width:1.0;stroke-dasharray:7.0,7.0;"/><polygon fill="#A80036" points="725.5,350.46,729.5,341.46,725.5,345.46,721.5,341.46,725.5,350.46" style="stroke:#A80036;stroke-width:1.0;"/><!--MD5=[36e2edb5f847b0fc90ac814e166abcc1]
link prog01_aorderedlist.Prog01_aOrderedList to java.io.PrintWriter--><path codeLine="16" d="M708.21,117.99 C687.84,146.18 653.61,195.26 628.5,240 C608.72,275.25 589.72,317.9 578.08,345.35 " fill="none" id="prog01_aorderedlist.Prog01_aOrderedList-to-java.io.PrintWriter" style="stroke:#A80036;stroke-width:1.0;stroke-dasharray:7.0,7.0;"/><polygon fill="#A80036" points="575.99,350.29,583.1691,343.5475,577.9303,345.6818,575.796,340.4431,575.99,350.29" style="stroke:#A80036;stroke-width:1.0;"/><!--MD5=[89667445299393fd7da60e516fb25538]
link prog01_aorderedlist.Prog01_aOrderedList to java.util.Collections--><path codeLine="17" d="M801.23,114.56 C869.15,135.89 967.82,175.6 1032.5,240 C1062.29,269.66 1080.14,315.9 1089.14,345.44 " fill="none" id="prog01_aorderedlist.Prog01_aOrderedList-to-java.util.Collections" style="stroke:#A80036;stroke-width:1.0;stroke-dasharray:7.0,7.0;"/><polygon fill="#A80036" points="1090.62,350.39,1091.8865,340.6229,1089.1937,345.5977,1084.2189,342.9049,1090.62,350.39" style="stroke:#A80036;stroke-width:1.0;"/><!--MD5=[06429f84f6c9040bf5f03328a6d2b741]
link prog01_aorderedlist.Prog01_aOrderedList to java.util.Scanner--><path codeLine="18" d="M801.36,100.86 C896.76,112.68 1060.29,146.12 1161.5,240 C1191.81,268.11 1206.29,315.21 1212.77,345.29 " fill="none" id="prog01_aorderedlist.Prog01_aOrderedList-to-java.util.Scanner" style="stroke:#A80036;stroke-width:1.0;stroke-dasharray:7.0,7.0;"/><polygon fill="#A80036" points="1213.81,350.34,1215.9027,340.716,1212.7965,345.4438,1208.0687,342.3376,1213.81,350.34" style="stroke:#A80036;stroke-width:1.0;"/><!--MD5=[b283b80be2495cf859be8dd8467d0a65]
link prog01_aorderedlist.aOrderedList to java.lang.Override--><path codeLine="19" d="M551.14,117.81 C526.23,168.91 466.89,290.64 440.07,345.66 " fill="none" id="prog01_aorderedlist.aOrderedList-to-java.lang.Override" style="stroke:#A80036;stroke-width:1.0;stroke-dasharray:7.0,7.0;"/><polygon fill="#A80036" points="437.73,350.46,445.2764,344.1314,439.9261,345.9681,438.0894,340.6177,437.73,350.46" style="stroke:#A80036;stroke-width:1.0;"/><!--MD5=[d39110584a409e6ed0476b090be48021]
link prog01_aorderedlist.aOrderedList to java.util.Arrays--><path codeLine="20" d="M575.46,117.83 C587.62,137.49 607.63,164.77 632.5,180 C739.56,245.55 807.98,164.81 908.5,240 C943.74,266.36 964.03,314.94 973.9,345.67 " fill="none" id="prog01_aorderedlist.aOrderedList-to-java.util.Arrays" style="stroke:#A80036;stroke-width:1.0;stroke-dasharray:7.0,7.0;"/><polygon fill="#A80036" points="975.4,350.44,976.5168,340.6547,973.9005,345.6701,968.885,343.0539,975.4,350.44" style="stroke:#A80036;stroke-width:1.0;"/><!--MD5=[fbe50845bd321be749eb8f4c73b3cc7b]
link Car to Prog01_aOrderedList--><!--MD5=[594377b7aee11577a26f5b27ef6d04e1]
link Car to aOrderedList--><!--MD5=[b807c6ee16af7b235ffee7117235b99c]
@startuml
annotation java.lang.Override
class java.io.File
class java.io.FileNotFoundException
class java.io.PrintWriter
class java.util.Arrays
class java.util.Collections
class java.util.Scanner
class prog01_aorderedlist.Car
class prog01_aorderedlist.Prog01_aOrderedList
class prog01_aorderedlist.aOrderedList
interface java.lang.Comparable
prog01_aorderedlist.Car ..> java.lang.Override
prog01_aorderedlist.Car - -|> java.lang.Comparable
prog01_aorderedlist.Prog01_aOrderedList ..> java.io.File
prog01_aorderedlist.Prog01_aOrderedList ..> java.io.FileNotFoundException
prog01_aorderedlist.Prog01_aOrderedList ..> java.io.PrintWriter
prog01_aorderedlist.Prog01_aOrderedList ..> java.util.Collections
prog01_aorderedlist.Prog01_aOrderedList ..> java.util.Scanner
prog01_aorderedlist.aOrderedList ..> java.lang.Override
prog01_aorderedlist.aOrderedList ..> java.util.Arrays

class Car {
  private String make
  private year : Integer
  private price : Integer

   +getMake()
   +getPrice()
   +getYear()
   +Car(String Make, int Year, int Price)
   +compareTo(Car other)
   +String toString()

}

class Prog01_aOrderedList{
   +GetInputFile()
   +GetOutputFile()
   +readFile()
  {abstract} void main()
}

class aOrderedList {
    private SIZEINCREMENTS
    private Comparable[] oList
    private listSize : Integer
    private numObjects : Integer
    private curr : Integer

   +aOrderedList()
   +add(Comparable newObject)
   +size()
   +get(int index)
   +isEmpty()
   +remove(int index)
   +reset()
   +next()
   +hasNext()
   +remove()
   +toString()
}
@enduml

PlantUML version 1.2021.3(Mon Mar 22 11:53:19 CDT 2021)
(GPL source distribution)
Java Runtime: Java(TM) SE Runtime Environment
JVM: Java HotSpot(TM) 64-Bit Server VM
Default Encoding: UTF-8
Language: en
Country: US
--></g></svg>